{
    "asset" : {
        "generator" : "Khronos glTF Blender I/O v1.6.16",
        "version" : "2.0"
    },
    "scene" : 0,
    "scenes" : [
        {
            "name" : "Scene",
            "nodes" : [
                0
            ]
        }
    ],
    "nodes" : [
        {
            "mesh" : 0,
            "name" : "house"
        }
    ],
    "materials" : [
        {
            "doubleSided" : true,
            "name" : "Material",
            "pbrMetallicRoughness" : {
                "metallicFactor" : 0,
                "roughnessFactor" : 0.4000000059604645
            }
        }
    ],
    "meshes" : [
        {
            "name" : "Cube",
            "primitives" : [
                {
                    "attributes" : {
                        "POSITION" : 0,
                        "NORMAL" : 1,
                        "TEXCOORD_0" : 2,
                        "COLOR_0" : 3
                    },
                    "indices" : 4,
                    "material" : 0
                }
            ]
        }
    ],
    "accessors" : [
        {
            "bufferView" : 0,
            "componentType" : 5126,
            "count" : 1910,
            "max" : [
                1.07756769657135,
                2.5,
                1.116926670074463
            ],
            "min" : [
                -2.704632043838501,
                0,
                -1.116926670074463
            ],
            "type" : "VEC3"
        },
        {
            "bufferView" : 1,
            "componentType" : 5126,
            "count" : 1910,
            "type" : "VEC3"
        },
        {
            "bufferView" : 2,
            "componentType" : 5126,
            "count" : 1910,
            "type" : "VEC2"
        },
        {
            "bufferView" : 3,
            "componentType" : 5123,
            "count" : 1910,
            "normalized" : true,
            "type" : "VEC4"
        },
        {
            "bufferView" : 4,
            "componentType" : 5123,
            "count" : 3150,
            "type" : "SCALAR"
        }
    ],
    "bufferViews" : [
        {
            "buffer" : 0,
            "byteLength" : 22920,
            "byteOffset" : 0
        },
        {
            "buffer" : 0,
            "byteLength" : 22920,
            "byteOffset" : 22920
        },
        {
            "buffer" : 0,
            "byteLength" : 15280,
            "byteOffset" : 45840
        },
        {
            "buffer" : 0,
            "byteLength" : 15280,
            "byteOffset" : 61120
        },
        {
            "buffer" : 0,
            "byteLength" : 6300,
            "byteOffset" : 76400
        }
    ],
    "buffers" : [
        {
            "byteLength" : 82700,
            "uri" : "data:application/octet-stream;base64,"
        }
    ]
}
